<?xml version="1.0" encoding="utf-8"?>
<!-- Generator: Adobe Illustrator 28.4.1, SVG Export Plug-In . SVG Version: 6.00 Build 0)  -->
<svg version="1.1" xmlns="http://www.w3.org/2000/svg" xmlns:xlink="http://www.w3.org/1999/xlink" x="0px" y="0px"
	 viewBox="0 0 24 24" style="enable-background:new 0 0 24 24;" xml:space="preserve">
<style type="text/css">
	.st0{fill:#FFFFFF;}
	.st1{fill:#070707;}
</style>
<g id="Layer_1">
</g>
<g id="Layer_2">
	<g>
		<g>
			<path class="st0" d="M17.6,14.3c0,3.6-2.5,6.6-5.9,7.3l0.3-0.8c0.3-0.6,0.3-1.2,0.3-1.9c0-1.1-0.3-2.3-1.1-3.1
				c-0.3-0.3-0.7-0.5-1.1-0.5s-0.9,0.2-1.1,0.5c-1.1,1.4-1.4,3.3-0.8,5.1l0.3,0.8c-3.3-0.7-5.9-3.7-5.9-7.3c0-1.4,0.9-4,1.9-6.9
				c1.4-3.8,2.2-5.6,3.1-5.7c0.3,0,0.6,0,0.9,0.2c0.8,0.4,0.8,2.4,0.8,6.6c0,1.2,1,2.2,2.2,2.2s2.2-1,2.2-2.2c0-1.1,1.6-1.5,2-0.3
				C16.8,10.7,17.6,13,17.6,14.3z"/>
			<path class="st0" d="M8.6,21.6c0.5,0.1,1,0.2,1.6,0.2H8.7L8.6,21.6z"/>
			<path class="st0" d="M11.8,21.6l-0.1,0.2h-1.5C10.7,21.8,11.2,21.7,11.8,21.6z"/>
		</g>
		<path class="st0" d="M18.5,21.6h-6.8c-0.5,0-0.8-0.4-0.8-0.8v-4.3c0-0.5,0.4-0.8,0.8-0.8h6.8c0.5,0,0.8,0.4,0.8,0.8v4.3
			C19.3,21.2,18.9,21.6,18.5,21.6z"/>
		<g>
			<path class="st1" d="M12.5,20.3c-0.1,0-0.2,0-0.3-0.1s-0.1-0.2-0.1-0.3v-2.4c0-0.1,0-0.2,0.1-0.3s0.2-0.1,0.3-0.1
				c0.1,0,0.2,0,0.3,0.1c0.1,0.1,0.1,0.2,0.1,0.3v1h0l1.1-1.2c0.1-0.1,0.1-0.1,0.2-0.1c0.1,0,0.1-0.1,0.2-0.1c0.1,0,0.2,0,0.3,0.1
				s0.1,0.1,0.1,0.2c0,0.1,0,0.2-0.1,0.2l-1.1,1.1v-0.3l1.1,1.3c0.1,0.1,0.1,0.2,0.1,0.3s0,0.2-0.1,0.2c-0.1,0.1-0.2,0.1-0.3,0.1
				c-0.1,0-0.2,0-0.2-0.1c-0.1,0-0.1-0.1-0.2-0.2l-1.1-1.2h0v1c0,0.1,0,0.2-0.1,0.3S12.7,20.3,12.5,20.3z"/>
			<path class="st1" d="M16,20.3c-0.2,0-0.3,0-0.4-0.1c-0.1-0.1-0.2-0.1-0.3-0.3c-0.1-0.1-0.1-0.2-0.1-0.4c0-0.2,0-0.3,0.1-0.4
				c0.1-0.1,0.2-0.2,0.4-0.2s0.4-0.1,0.7-0.1h0.2v0.4h-0.2c-0.1,0-0.2,0-0.3,0c-0.1,0-0.1,0-0.2,0.1c0,0-0.1,0.1-0.1,0.1
				c0,0.1,0,0.1,0.1,0.2c0,0,0.1,0.1,0.2,0.1c0.1,0,0.1,0,0.2,0s0.1-0.1,0.1-0.1c0-0.1,0.1-0.1,0.1-0.2v-0.5c0-0.1,0-0.2-0.1-0.2
				s-0.1-0.1-0.3-0.1c-0.1,0-0.2,0-0.2,0c-0.1,0-0.2,0-0.3,0.1c-0.1,0-0.1,0-0.2,0c-0.1,0-0.1-0.1-0.1-0.1c0,0,0-0.1,0-0.2
				c0-0.1,0-0.1,0.1-0.2c0-0.1,0.1-0.1,0.2-0.1c0.1-0.1,0.3-0.1,0.4-0.1c0.1,0,0.2,0,0.3,0c0.2,0,0.4,0,0.6,0.1
				c0.2,0.1,0.3,0.2,0.4,0.3c0.1,0.1,0.1,0.3,0.1,0.6v0.9c0,0.1,0,0.2-0.1,0.3c-0.1,0.1-0.2,0.1-0.3,0.1c-0.1,0-0.2,0-0.3-0.1
				c-0.1-0.1-0.1-0.2-0.1-0.3v-0.1l0,0.1c0,0.1,0,0.2-0.1,0.2s-0.1,0.1-0.2,0.2C16.2,20.2,16.1,20.3,16,20.3z"/>
			<path class="st1" d="M18.6,20.3c-0.3,0-0.5-0.1-0.6-0.2c-0.1-0.2-0.2-0.4-0.2-0.7v-1.9c0-0.1,0-0.2,0.1-0.3
				c0.1-0.1,0.2-0.1,0.3-0.1c0.1,0,0.2,0,0.3,0.1c0.1,0.1,0.1,0.2,0.1,0.3v1.9c0,0.1,0,0.2,0.1,0.2s0.1,0.1,0.2,0.1c0,0,0,0,0.1,0
				c0,0,0,0,0.1,0c0,0,0.1,0,0.1,0.1c0,0,0,0.1,0,0.2c0,0.1,0,0.2-0.1,0.2c0,0.1-0.1,0.1-0.2,0.1c0,0-0.1,0-0.1,0
				C18.6,20.3,18.6,20.3,18.6,20.3z"/>
		</g>
	</g>
</g>
</svg>
