<?xml version="1.0" encoding="utf-8"?>
<!-- Generator: Adobe Illustrator 28.4.1, SVG Export Plug-In . SVG Version: 6.00 Build 0)  -->
<svg version="1.1" id="Layer_1" xmlns="http://www.w3.org/2000/svg" xmlns:xlink="http://www.w3.org/1999/xlink" x="0px" y="0px"
	 viewBox="0 0 24 24" style="enable-background:new 0 0 24 24;" xml:space="preserve">
<style type="text/css">
	.st0{fill:#FFFFFF;}
	.st1{fill:#070707;}
</style>
<g>
	<g id="Layer_1_00000042719129079957781870000010593845437723799211_">
	</g>
	<g id="Layer_2_00000039102782773186409960000011072416132409338244_">
		<g>
			<g>
				<path class="st0" d="M20.5,14.8c0,4.2-2.9,7.7-6.9,8.6l0.4-0.9c0.4-0.7,0.4-1.4,0.4-2.2c0-1.3-0.4-2.7-1.3-3.6
					c-0.4-0.4-0.8-0.6-1.3-0.6s-1.1,0.2-1.3,0.6c-1.3,1.6-1.6,3.9-0.9,6l0.4,0.9c-3.9-0.8-6.9-4.3-6.9-8.6c0-1.6,1.1-4.7,2.2-8.1
					c1.6-4.5,2.6-6.6,3.6-6.7c0.4,0,0.7,0,1.1,0.2c0.9,0.5,0.9,2.8,0.9,7.7c0,1.4,1.2,2.6,2.6,2.6s2.6-1.2,2.6-2.6
					c0-1.3,1.9-1.8,2.3-0.4C19.5,10.6,20.5,13.3,20.5,14.8z"/>
				<path class="st0" d="M9.9,23.4c0.6,0.1,1.2,0.2,1.9,0.2H10L9.9,23.4z"/>
				<path class="st0" d="M13.7,23.4l-0.1,0.2h-1.8C12.4,23.6,13,23.5,13.7,23.4z"/>
			</g>
			<path class="st0" d="M21.5,23.4h-8c-0.6,0-0.9-0.5-0.9-0.9v-5c0-0.6,0.5-0.9,0.9-0.9h8c0.6,0,0.9,0.5,0.9,0.9v5
				C22.5,22.9,22,23.4,21.5,23.4z"/>
			<g>
				<path class="st1" d="M14.5,21.9c-0.1,0-0.2,0-0.4-0.1C14,21.6,14,21.5,14,21.4v-2.8c0-0.1,0-0.2,0.1-0.4
					c0.1-0.1,0.2-0.1,0.4-0.1s0.2,0,0.4,0.1c0.1,0.1,0.1,0.2,0.1,0.4v1.2l0,0l1.3-1.4c0.1-0.1,0.1-0.1,0.2-0.1
					c0.1,0,0.1-0.1,0.2-0.1s0.2,0,0.4,0.1c0.1,0.1,0.1,0.1,0.1,0.2c0,0.1,0,0.2-0.1,0.2L15.8,20v-0.4l1.3,1.5
					c0.1,0.1,0.1,0.2,0.1,0.4s0,0.2-0.1,0.2c-0.1,0.1-0.2,0.1-0.4,0.1c-0.1,0-0.2,0-0.2-0.1c-0.1,0-0.1-0.1-0.2-0.2L15,20.1l0,0v1.2
					c0,0.1,0,0.2-0.1,0.4C14.7,21.7,14.7,21.9,14.5,21.9z"/>
				<path class="st1" d="M18.6,21.9c-0.2,0-0.4,0-0.5-0.1c-0.1-0.1-0.2-0.1-0.4-0.4c-0.1-0.1-0.1-0.2-0.1-0.5c0-0.2,0-0.4,0.1-0.5
					c0.1-0.1,0.2-0.2,0.5-0.2c0.2,0,0.5-0.1,0.8-0.1h0.2v0.5h-0.2c-0.1,0-0.2,0-0.4,0c-0.1,0-0.1,0-0.2,0.1l-0.1,0.1
					c0,0.1,0,0.1,0.1,0.2c0,0,0.1,0.1,0.2,0.1c0.1,0,0.1,0,0.2,0c0.1,0,0.1-0.1,0.1-0.1c0-0.1,0.1-0.1,0.1-0.2v-0.6
					c0-0.1,0-0.2-0.1-0.2c-0.1,0-0.1-0.1-0.4-0.1c-0.1,0-0.2,0-0.2,0c-0.1,0-0.2,0-0.4,0.1c-0.1,0-0.1,0-0.2,0
					c-0.1,0-0.1-0.1-0.1-0.1s0-0.1,0-0.2c0-0.1,0-0.1,0.1-0.2c0-0.1,0.1-0.1,0.2-0.1c0.1-0.1,0.4-0.1,0.5-0.1c0.1,0,0.2,0,0.4,0
					c0.2,0,0.5,0,0.7,0.1c0.2,0.1,0.4,0.2,0.5,0.4c0.1,0.1,0.1,0.4,0.1,0.7v1.1c0,0.1,0,0.2-0.1,0.4c-0.1,0.1-0.2,0.1-0.4,0.1
					s-0.2,0-0.4-0.1c-0.1-0.1-0.1-0.2-0.1-0.4v-0.1v0.1c0,0.1,0,0.2-0.1,0.2c-0.1,0-0.1,0.1-0.2,0.2C18.8,21.7,18.7,21.9,18.6,21.9z
					"/>
				<path class="st1" d="M21.7,21.9c-0.4,0-0.6-0.1-0.7-0.2c-0.1-0.2-0.2-0.5-0.2-0.8v-2.2c0-0.1,0-0.2,0.1-0.4
					c0.1-0.1,0.2-0.1,0.4-0.1s0.2,0,0.4,0.1c0.1,0.1,0.1,0.2,0.1,0.4v2.2c0,0.1,0,0.2,0.1,0.2c0.1,0,0.1,0.1,0.2,0.1c0,0,0,0,0.1,0
					c0,0,0,0,0.1,0c0,0,0.1,0,0.1,0.1c0,0,0,0.1,0,0.2c0,0.1,0,0.2-0.1,0.2c0,0.1-0.1,0.1-0.2,0.1h-0.1
					C21.7,21.9,21.7,21.9,21.7,21.9z"/>
			</g>
		</g>
	</g>
</g>
</svg>
