<?xml version="1.0" encoding="utf-8"?>
<!-- Generator: Adobe Illustrator 28.4.1, SVG Export Plug-In . SVG Version: 6.00 Build 0)  -->
<svg version="1.1" id="Layer_1" xmlns="http://www.w3.org/2000/svg" xmlns:xlink="http://www.w3.org/1999/xlink" x="0px" y="0px"
	 viewBox="0 0 24 24" style="enable-background:new 0 0 24 24;" xml:space="preserve">
<style type="text/css">
	.st0{fill:#FFFFFF;}
</style>
<g>
	<path class="st0" d="M20.5,15c0,4.1-2.9,7.5-6.7,8.3l0.4-0.9c0.3-0.7,0.4-1.4,0.4-2.2c0-1.3-0.4-2.6-1.3-3.6C13,16.2,12.5,16,12,16
		s-1,0.2-1.3,0.6c-1.3,1.6-1.6,3.8-0.9,5.8l0.4,0.9c-3.8-0.8-6.7-4.2-6.7-8.3c0-1.6,1-4.6,2.2-7.9c1.6-4.3,2.5-6.4,3.5-6.5
		c0.3,0,0.7,0,1,0.2c0.9,0.5,0.9,2.8,0.9,7.5c0,1.4,1.1,2.5,2.5,2.5c1.4,0,2.5-1.1,2.5-2.5c0-1.3,1.8-1.7,2.3-0.4
		C19.6,10.8,20.5,13.5,20.5,15z"/>
	<path class="st0" d="M10.2,23.3c0.6,0.1,1.2,0.2,1.8,0.2h-1.7L10.2,23.3z"/>
	<path class="st0" d="M13.8,23.3l-0.1,0.2H12C12.6,23.5,13.2,23.4,13.8,23.3z"/>
</g>
</svg>
