<?xml version="1.0" encoding="UTF-8"?>
<svg id="Layer_2" data-name="Layer 2" xmlns="http://www.w3.org/2000/svg" viewBox="0 0 599.08 178.44">
  <defs>
    <style>
      .cls-1 {
        fill: #028162;
      }

      .cls-2 {
        fill: #8bcac1;
      }

      .cls-3 {
        fill: #018263;
      }

      .cls-4 {
        fill: #028264;
      }

      .cls-5 {
        fill: #8ac7bd;
      }
    </style>
  </defs>
  <g id="Layer_1-2" data-name="Layer 1">
    <g>
      <path class="cls-2" d="M293.53,49.95c4.24,5.64,9.55,19.83,14.46,23.99,2.87,2.44,7.75,3.08,10.6.58l.91-63.04-6.98-5.99,15.96-5.5v74.43l1.65,1.34,6.33.16v1.99s-45.93,0-45.93,0c-.92-3.16,2.55-1.45,3.56-2.91,2.38-3.44-4.46-13.48-6.07-17.08-1.79,0-13,14.1-9.05,17.05,1.75,1.31,4.81.48,5.57,2.94h-89.87c1.61-2.98,6.34-2.49,8.46-5.02,1.23-1.47,2.18-5.59,2.42-7.57,1.47-12.48,1.33-41.18.16-53.88-.63-6.88-2.86-7.35-8.69-9.33-1.55-.53-2.84.88-2.34-2.11h34.95c.51,3-.82,1.57-2.34,2.1-8.36,2.92-8.67,3-9.51,12.51-1.18,13.33-1.13,35.45-.17,48.86.14,1.97.99,8.96,2,9.99,17.24,6.19,42.16,2.57,45.98-18.52,1.92.49,1.71,1.43,1.59,3-.43,5.51-2.85,12.34-3.6,17.97,5.72,1.01,9.58-3.69,13-7.46,2.66-2.92,9.5-11.11,8.81-14.78-4.36-5.92-7.94-16.88-12.82-21.95-3.14-3.26-6.59-1.7-9-4.76h25.96c-.98,2.76-4.76,1.27-5.06,4.5-.21,2.26,4.89,11,6.05,14.48,1.73,5.15,1.69,2.26,3,4Z"/>
      <path class="cls-4" d="M321.98,107.89l22.46,47.95,21.48-47.95h19.97l1.49,2.48c-6.61,2.71-8.89,2.15-9.86,10.12-1.26,10.36-1.13,34.32-.16,44.89.6,6.52,3.7,7.98,9.97,8.51l.06,3.93h-33.95l.06-3.93c4.02-.33,9.64-1.13,10.71-5.77.53-12.59.06-25.19.17-37.79.02-2.85,2.06-5.96-.45-8.46l-23.96,53.98-2.59-.61-22.86-51.35c-1.22,10.25-1.67,22.13-1.06,32.51.54,9.15.25,18.21,12.03,17.44.4,1.11-.43,3.99-1.5,3.99h-25.46l.11-3.89c8.2-.19,10.3-7.54,10.9-14.56,1.15-13.39-.9-28.39-.06-41.97-1.13-6-9.65-3.77-8.96-9.52h21.47Z"/>
      <path class="cls-3" d="M563.63,107.89c1.42.15,5.77,1.21,7.31,1.68,17.78,5.45,17.85,29.02.18,34.3v1.46c9.22,9.11,13.59,26.58,27.84,28.6l.12,3.88h-20.47c-9.45-9.94-15.02-28.99-29.46-31.97v23.48c0,3.88,8.86,3.93,9.98,6.01.85,1.58-4.19,2.48-4.48,2.48h-27.46l.06-3.93c5.39.09,8.09-2.3,8.84-7.65,1.4-10.03,1.08-36.42.14-46.91-.55-6.09-2.22-6.78-8.02-7.97l-1.02-3.48c11.65.9,25.01-1.21,36.45,0ZM549.15,141.86c29.05,3.02,29.16-33.02,0-29.97v29.97Z"/>
      <path class="cls-3" d="M429.83,107.89c1.42.15,5.77,1.21,7.31,1.68,15.6,4.79,18.58,23.78,3.18,30.78,4.59,3.39,9.24,4.55,11.87,10.1,4.3,9.08.2,20.5-9.19,24.56-7.72,3.34-39.14,3.91-48.17,2.86-2.93-.34-3.82-.83-3.45-4.04,6.58-.25,9.06-2.07,9.87-8.62,1.25-10.06,1.11-33.6.16-43.88-.32-3.4-.88-7.05-4.1-8.88-2.27-1.29-5.77.03-4.92-4.57,11.97.92,25.69-1.24,37.45,0ZM413.34,139.87c30.91,4.97,32.52-32.2,1-27.98l-1,27.98ZM413.35,143.86v18.48c0,.45,1.31,8.11,1.49,8.5,2.12,4.61,12.56,2.85,16.48,1.48,10-3.48,12.38-16.79,4.9-23.87-1.16-1.09-7.24-4.59-8.39-4.59h-14.48Z"/>
      <path class="cls-3" d="M515.2,107.89c1.33,5.33,4.34,10.23,6.17,15.33,1.28,3.58-1.85,2.98-4.22,1.2-5.43-4.08-10.03-12.53-18.43-12.53h-15.48v27.97c9.96.85,18.46-1.28,19.88-12.39l3.08-.6v30.97l-3.07-.62c-3.12-10.53-8.63-14.72-19.9-13.37v26.47c0,4.56,19.52,2.9,23,2.03,7.7-1.93,10.52-8.76,14.64-14.29,1.89-2.55,4.02-1.68,3.65,1.54-.27,2.3-3.15,14.34-4.02,15.98-.57,1.07-2.99,2.23-3.81,2.23h-55.42l.12-3.89c6.85-.74,8.3-3,8.91-9.56.9-9.75,1.33-37.82-.1-46.93-.7-4.49-3.72-5.64-7.87-5.62l-.06-3.93h52.92Z"/>
      <path class="cls-1" d="M251.09,107.89l1.49,2.48c-.5,2.25-7.85.22-8.92,7.07-1.2,7.64-.74,37.32,1.75,44.08,6.37,17.31,33,14.79,37.05-4.26,1.13-5.3.82-33.28-.16-38.64s-4.77-6.49-9.68-6.8l-.06-3.93h24.96l-.06,3.93c-9.18-.44-9.47,8.41-9.97,15.51-1.13,16.14,4.86,40.16-13.57,48.37-9.62,4.28-26.24,3.7-34.82-2.87-14.88-11.41-5.52-40.68-8.51-56.42-.69-3.64-4.78-4.6-7.91-4.58l-.06-3.93h28.46Z"/>
      <path class="cls-3" d="M216.64,108.89v22.98c-4.57.2-5.55-6.96-8.57-10.9-19.1-24.92-46.24-2.85-44.39,25.43,1.69,25.94,30.28,38.13,45.41,16.38,2.5-3.6,2.86-10.51,7.55-9.93v22.98c-3.94.76-4.48-1.28-6.47-3.92-8.46,5.06-18.05,6.77-27.86,5.79-48.52-4.84-42.49-76.79,11.87-70.82,4.03.44,15.14,5.8,15.98,5.73,1.4-.11,3.46-4.98,6.48-3.73Z"/>
      <path class="cls-3" d="M102.8,107.89l-.06,3.93c-4.88-.07-7.82,1.88-8.69,6.79-1.39,7.8-.8,32.59,1.23,40.25,2.39,9.03,8.48,14.02,18.01,14.04,8.09.02,15.22-2.93,18.26-10.78,2.82-7.26,3.39-34.63,1.97-42.52-.56-3.09-2.23-5.55-5.04-6.95-2.66-1.32-6.55-.05-5.71-4.77h25.96l-1.02,3.48c-5.44.78-7.81,2.75-8.73,8.25-2.61,15.72,4.21,44.72-11.27,54.66-9,5.78-31.41,5.22-39.39-2.46-11.98-11.52-3.96-38.82-6.74-54.2-.95-5.27-3.75-5.97-8.74-5.76v-3.97s29.95,0,29.95,0Z"/>
      <path class="cls-4" d="M66.86,175.83c-2.91,1.29-5.28-3.73-6.47-3.76-.48-.01-6.62,3.47-8.71,4.06-29.09,8.3-58.51-11.38-50.27-43.3,6.74-26.12,38.62-32.53,59.9-19.94,1.96-1.87,2.01-4.76,5.54-3.99,1.52,7.54,1.53,15.48,0,22.98l-2.92-.04c-6.67-26.13-38.68-29.09-47.72-2.18-13.05,38.83,31.02,61.96,46.71,27.73,1.37-2.98-.33-5.39,3.94-4.54.83,2.33,0,4.85,0,6.5v16.48Z"/>
      <path class="cls-5" d="M354.44,26.97c-1.06,3.05-5.89.94-5.98,4.43l12.47,34.55,10.26-33.69-5.77-5.28h16.98c-1.92,3.38-6.98.77-8.19,5.29l-21,65.9c-7.5,14.01-19.86-1.39-11.04-4.07,5.1-1.55,8.03,3.71,9.27,2.8l4.74-16.33-17.9-48.91-7.8-4.69h23.96Z"/>
      <path class="cls-5" d="M232.61,52.95c-13.16-10.71,9.34-21.54,17.81-25.14.55-6.35,1.5-13.73-6.95-13.31-10.4.52-6.59,9.46-8.78,11.04-2.52,1.82-7.34-.28-6.61-3.66,1.05-4.85,18.2-12.29,23-11.96,14,.97,3.76,27.65,7.73,35.3,2.35,4.52,7.46,1.41,7.76,1.73.73,4.47-3.71,5.11-5.98,6.99-7.5.18-9.99-2.41-9.99-9.49v-14.49c-11.21,2.02-23.6,19.43-4.05,17.41.85-.09,3.01-1.2,2.05,1.06-1.63,3.82-12.14,6.81-15.97,4.51Z"/>
      <path class="cls-5" d="M290.53,45.96c2.12,1.22,1.74,1.62,3.29-.23,2.03-2.43,9.28-13.09,7.27-15.82-1.62-2.19-6.48.87-5.57-2.93h19.97c.54,3.17-3.61,1.68-6.37,3.12-4.8,2.52-12.2,15.04-15.6,19.85-1.31-1.74-1.27,1.15-3-4Z"/>
    </g>
  </g>
</svg>