<?xml version="1.0" encoding="utf-8"?>
<!-- Generator: Adobe Illustrator 28.4.1, SVG Export Plug-In . SVG Version: 6.00 Build 0)  -->
<svg version="1.1" id="Layer_1" xmlns="http://www.w3.org/2000/svg" xmlns:xlink="http://www.w3.org/1999/xlink" x="0px" y="0px"
	 viewBox="0 0 24 24" style="enable-background:new 0 0 24 24;" xml:space="preserve">
<style type="text/css">
	.st0{fill:#FFFFFF;}
</style>
<path class="st0" d="M13.8,6.2c0,0-10.6,10.5-11,11.1c-0.5,0.5,0.5,1.8,0,2.3L1.4,21c-0.5,0.4-0.5,1.2,0,1.7c0.4,0.5,1.2,0.5,1.7,0
	l1.4-1.4c0.5-0.5,1.8,0.5,2.3,0s10.9-11,11.1-11L13.8,6.2z M6.8,20.1c-0.5,0.5-1.8-0.5-2.3,0l-2,2c-0.2,0.2-0.4,0.2-0.6,0
	c-0.2-0.2-0.2-0.4,0-0.6l2-2c0.5-0.5-0.5-1.8,0-2.3s9.9-9.9,9.9-9.9l2.9,2.9C16.7,10.2,7.3,19.6,6.8,20.1z M22.3,1.8
	c-1.2-1.1-3-1.1-4.1,0l-2.6,2.6L15,3.8c-0.4-0.3-0.9-0.3-1.2,0c-0.3,0.4-0.3,0.9,0,1.2l5.2,5.2c0.3,0.3,0.8,0.3,1.2,0
	c0.3-0.4,0.3-0.9,0-1.2l-0.5-0.5l2.6-2.6C23.4,4.7,23.4,2.9,22.3,1.8z"/>
<path class="st0" d="M16.7,10.2c0,0-9.4,9.4-9.9,9.9s-1.8-0.5-2.3,0l-2,2c-0.2,0.2-0.4,0.2-0.6,0c-0.2-0.2-0.2-0.4,0-0.6l2-2
	c0.5-0.5-0.5-1.8,0-2.3s9.9-9.9,9.9-9.9L16.7,10.2z"/>
</svg>
