<?xml version="1.0" encoding="utf-8"?>
<!-- Generator: Adobe Illustrator 28.4.1, SVG Export Plug-In . SVG Version: 6.00 Build 0)  -->
<svg version="1.1" id="Layer_1" xmlns="http://www.w3.org/2000/svg" xmlns:xlink="http://www.w3.org/1999/xlink" x="0px" y="0px"
	 viewBox="0 0 24 24" style="enable-background:new 0 0 24 24;" xml:space="preserve">
<style type="text/css">
	.st0{fill:#FFFFFF;}
</style>
<path class="st0" d="M19,10.2L13.8,5c-0.3-0.3-0.3-0.8,0-1.2c0.3-0.3,0.8-0.3,1.2,0l0.6,0.6l2.6-2.6c1.1-1.1,2.9-1.1,4.1,0
	c1.1,1.1,1.1,2.9,0,4.1l-2.6,2.6L20.2,9c0.3,0.3,0.3,0.8,0,1.2C19.8,10.5,19.3,10.5,19,10.2L19,10.2z M6.8,21.3
	c-0.5,0.5-1.8-0.5-2.3,0l-1.4,1.4c-0.5,0.5-1.3,0.5-1.7,0c-0.5-0.5-0.5-1.3,0-1.7l1.4-1.4c0.5-0.5-0.5-1.8,0-2.3
	C3.2,16.7,13.8,6.2,13.8,6.2l4.1,4.1C17.8,10.2,7.3,20.8,6.8,21.3L6.8,21.3z M16.7,10.2l-2.9-2.9c0,0-9.4,9.4-9.9,9.9
	c-0.5,0.5,0.5,1.8,0,2.3l-2,2c-0.2,0.2-0.2,0.4,0,0.6s0.4,0.2,0.6,0l2-2c0.5-0.5,1.8,0.5,2.3,0S16.7,10.2,16.7,10.2L16.7,10.2z"/>
</svg>
