<?xml version="1.0" encoding="UTF-8"?>
<svg id="Layer_2" data-name="Layer 2" xmlns="http://www.w3.org/2000/svg" viewBox="0 0 511.03 72.14">
  <defs>
    <style>
      .cls-1 {
        fill: #b580b5;
      }
    </style>
  </defs>
  <g id="Layer_1-2" data-name="Layer 1">
    <g>
      <path class="cls-1" d="M139.01,1.02c.51,2.88-.73,1.63-2.2,2.25-2.5,1.05-6.18,1.15-5.64,4.99l18.83,46.76c3.75-12.63,10.97-25.49,14.47-38.04,2.47-8.87,3.92-10.8-5.11-13.85-1.56-.53-2.85.88-2.34-2.11h69l7,16.99c-4.26.51-5.16-4.04-7.98-6.51-9.64-8.46-20.53-9.89-33.02-7.48v30c6.71.26,16.62.73,20.42-6.08,1.59-2.84.72-7.94,4.58-7.92v32c-3.38.21-3.61-5.88-5.14-8.36-4.81-7.75-11.7-6.87-19.86-6.64v25.5c0,8.83,16.9,7.11,23.05,6.05s9.85-4.47,13.92-9.08c.88-1,5.31-9.25,7.02-7.47l-3.99,16.99c7.37-.66,7.62-9.5,8.04-15.45.68-9.8,1.33-33.97-.1-42.98-.91-5.78-4.58-5.71-8.54-7.46-1.21-.54-1.79.47-1.41-2.1h20.5l44.5,52V9.52c0-3.05-6.56-5.35-8.8-6.25-1.52-.61-2.69.59-2.2-2.25h67.5c1.32,0,7.43,2.14,9.18,2.82,13.43,5.25,20.18,15.93,21.43,30.07l5.9.11V9.52c0-3.81-5.37-6.84-9-6.51v-1.99h53.5l7.5,16.99c-2.65.56-2.19-.22-3.29-1.24-4.34-4-7.84-9.77-14.14-11.82-3.41-1.11-20.35-3.49-22.1-.98-1.6,4.07-2.52,28.21-.52,29.61,12.33,1.71,17.31-.21,21.81-11.36.61-1.52-.6-2.7,2.25-2.2v32c-2.97.47-3.12-4.62-4.47-7.04-5.14-9.23-10.66-8.14-20.54-7.97.23,10.27-1.01,20.84,2.25,30.76,10.56,2.34,24.01,2.84,32.4-5.11,3.13-2.97,4.97-8.49,8.85-10.65l-3.49,17c5.53.07,7.44-3.55,7.99-8.5,1.77-15.83-1.26-34.77-.06-50.94-.75-4.88-3.15-4.79-6.74-6.31-1.47-.62-2.71.62-2.2-2.25h39.5c2.29,0,10.45,3.8,12.44,5.56,7.36,6.51,7.31,20.33-.46,26.41l-8.47,5.51c8.04,7.77,13.84,22.86,23.04,28.97,2.51,1.67,7.37,1.46,6.96,4.55h-19.5c-5.46-4.76-8.38-11.62-12.68-17.32-4.86-6.42-10.89-16.42-19.82-15.68v25.5c0,2.78,5.79,4.39,7.79,5.26,1.44.62,2.73-.65,2.21,2.24h-91c-.26-3.66,5.26-2.42,7.48-5.02.66-.77,2.52-6.72,2.52-7.48v-22.5l-5.9.11c-1.5,12.75-5.19,23.19-17.06,29.43-4.52,2.38-14.62,5.46-19.54,5.46h-40.5c-.29-3.73,5.97-2.5,8.07-5.43,1.01-1.41,1.74-6.14,1.91-8.09,1.02-11.4,1.26-35.8.02-46.98-1.32-11.86-14.04-9.67-15.79-1.79-.67,3.03-1.08,11.99-1.25,15.75-.73,15.43.63,31.09.04,46.54-1.98.17-3.65-1.23-4.99-2.5-12.5-11.86-25.67-31.03-37.49-44.51-3.92-4.47-7.89-9.2-12.51-12.99v49.5c0,.56,2.31,5.37,3.02,5.98,2.5,2.16,8.39.79,7.98,4.52h-83c1.6-5.13,7.84-2.46,8.94-9.56.6-3.87.9-11.57,1.1-15.9.31-6.58.79-37.32-1.97-41.13l-1.73-1.23c-.81-.16-1.92.33-2.63.78-5.1,3.23-21.23,50.5-25.55,59.72-1.15,2.46-2.81,8.25-5.67,7.35L116.54,6.99c-.97-1.05-1.99-2.02-3.17-2.84-1.91-1.34-5.09-.12-4.36-3.13h30ZM348.01,34.02h19.5c2.54-2.27-.11-8.69-1.33-11.67-6.93-17.08-22.14-21.01-39.18-18.33.02,15.79-1.99,31.72-1.04,47.55.17,2.8.93,11.17,1.79,13.21,1.42,3.36,4.48,4,7.7,4.3,21.58,2.01,32.55-11.62,33.55-32.05h-21v-3ZM459.01,37.02c11.07-.76,23.5-2.94,24.05-16.46.59-14.57-11.72-18.06-24.05-17.54v34Z"/>
      <path class="cls-1" d="M32.01,1.02c.52,2.88-.75,1.63-2.2,2.25-3.26,1.39-6.62,2.11-7.77,6.27l-.07,54.02c.74,7.37,15.8,5.94,21.42,5.33,13.82-1.5,17.57-9.61,23.11-20.89,5.05-10.27,10.51-23.65,14.56-34.43.78-2.06.59-5.3,1.19-6.32.31-.53,9.14-7.68,9.75-7.23,7.84,18.79,13.16,40.41,21.84,58.67,1,2.11,2.73,6.37,4.15,7.85,2.44,2.56,6.94,1.77,7.03,5.47h-29c.03-4.32,7.27-1.51,6.99-7.39-.07-1.43-5.73-17.71-6.48-18.62-.93-1.12-1.72-.9-2.95-1.05-3.48-.43-17.96-.56-21.07.04-.93.18-1.34.23-1.99,1.01-1.08,1.3-6.75,17.74-6.52,19.45.45,3.39,3.44,3.3,5.82,4.3,1.47.62,2.71-.62,2.2,2.25H0c-.22-3.73,5.79-2.46,8.05-5.44.99-1.31,1.62-4.46,1.83-6.17,1.36-11.32,1.22-37.39.16-48.93-.18-1.97-.13-3.84-1.58-5.42L0,1.02h32ZM73.01,42.02h22l-10.51-27.01c-2.08-.43-1.38.84-1.94,2.01-1.25,2.65-10.53,24.08-9.55,24.99Z"/>
    </g>
  </g>
</svg>