<?xml version="1.0" encoding="utf-8"?>
<!-- Generator: Adobe Illustrator 28.4.1, SVG Export Plug-In . SVG Version: 6.00 Build 0)  -->
<svg version="1.1" id="Layer_1" xmlns="http://www.w3.org/2000/svg" xmlns:xlink="http://www.w3.org/1999/xlink" x="0px" y="0px"
	 viewBox="0 0 24 24" style="enable-background:new 0 0 24 24;" xml:space="preserve">
<style type="text/css">
	.st0{fill:#FFFFFF;}
</style>
<g>
	<path class="st0" d="M10,15L10,15L10,15c-0.8-0.9,0.8-6.5-8.8-10.4c-1.6,0.3-3.4,8.3,6,10.7c2.8,1.4,2.4,3.7,2.4,5h1.8
		c0,0-0.7-4.1,2.5-5.6c2.2-1,8.4-1.4,10-10.6C20.9,2.3,9.8,5.9,10,15z M7.8,13.4c-0.2,0.1-0.5,0.1-0.6-0.1C6.3,12,3.7,9,2.6,7.8
		c-0.2-0.2-0.2-0.4,0-0.6c0.2-0.2,0.4-0.2,0.6,0c1.2,1.2,3.7,4.2,4.7,5.6C8,13.1,8,13.3,7.8,13.4z M19.5,6.6
		c-3.1,1.9-5.6,5.1-6.7,6.9c-0.1,0.2-0.4,0.2-0.6,0.1c-0.2-0.1-0.2-0.4-0.1-0.6c1.2-1.8,3.7-5.1,6.9-7.1c0.2-0.1,0.5-0.1,0.6,0.1
		C19.8,6.3,19.7,6.5,19.5,6.6z"/>
</g>
</svg>
