<?xml version="1.0" encoding="UTF-8"?>
<svg id="Layer_2" data-name="Layer 2" xmlns="http://www.w3.org/2000/svg" viewBox="0 0 512 153.57">
  <defs>
    <style>
      .cls-1 {
        fill: #fdec26;
      }
    </style>
  </defs>
  <g id="Layer_1-2" data-name="Layer 1">
    <g>
      <path class="cls-1" d="M229.5,0l22,48.01L273.5,0h19.5c.65,3.33-2.85,1.29-5.57,2.93-.9.54-2.66,2.96-2.98,4.02-.89,13.13-2.23,26.4-1.49,39.59.24,4.17.61,13.29,3.52,15.48,2.44,1.84,6.91.81,6.52,3.98h-31l8.54-4.96c.67-.68,2.46-3.91,2.46-4.54V8l-25.02,56-2.24-1.27-23.74-52.72c.5,11.87-1.77,23.65-1.06,35.54.27,4.51.64,13.19,3.99,16.01,2.78,2.34,7.31,1.23,7.06,4.44h-24c-.45-2.62.35-1.55,1.42-2.09,7.65-3.83,8.8-4.98,9.61-14.37.76-8.86,1.2-32.72-.09-40.98-.28-1.8-1.05-3.37-2.42-4.58-2.72-2.42-6.68-.63-6.53-3.98h19.5Z"/>
      <path class="cls-1" d="M461,0c.5,2.99-.78,1.59-2.34,2.11-1.74.59-3.58.53-5.2,1.85-.65.54-3.46,5.21-3.46,5.54v38.5l6.52-5.98L492.5,0h18.5c.16,3.35-3.8,1.56-6.53,3.98-1.36,1.21-2.13,2.79-2.42,4.58-1.35,8.65-.89,33.68-.09,42.98.28,3.26.93,6.58,2.54,9.46l7.5,5h-23c-.53-3.04.89-1.54,2.36-2.09,2.73-1.03,7.64-2.59,7.64-6.41V10c-15.52,14.76-27.81,33.61-42.49,49.01-2.85,2.99-6.14,7.68-10.51,6.99V8.5c0-5.1-6.89-5.71-9-8.5h24Z"/>
      <path class="cls-1" d="M370.81.25c7.61-.63,16.79,2.76,21.03,9.41,15.82,24.81-22.33,70.64-47.33,52.33-22.64-16.57,1.59-59.71,26.3-61.74ZM375.75,5.22c-12.65,1.85-28.76,24.34-32.06,35.98-5.48,19.34,7.73,25.56,22.78,13.78,10.53-8.25,24.69-29.14,21.05-43-1.4-5.35-6.66-7.5-11.77-6.75Z"/>
      <path class="cls-1" d="M157,0l6,15.99c-5.81-2.18-8.87-9.12-14.65-11.84-1.07-.51-6.12-2.15-6.85-2.15h-16.5v29c5.72.18,14.04.42,17.86-4.64,2-2.65,1.78-8.53,5.14-8.36v29c-3.1.32-3.48-5.12-4.97-7.53-3.85-6.23-11.22-6.87-18.03-6.47v26.5c0,6.43,19.64,4.46,24.02,3.02,6.33-2.09,9.73-7.69,13.4-12.62.83-1.11-.02-2.49,2.57-1.89l-3.99,17.99h-56l7.45-5.05c.96-2.37,1.36-4.88,1.58-7.42.85-9.82,1.34-36.84-.1-45.97-.24-1.53-.75-3-1.96-4.03-2.44-2.08-6.38-.14-5.97-3.53h51Z"/>
      <path class="cls-1" d="M30,0c.13,3.21-3.73,1.72-6.51,3.99-2.91,2.37-3.27,9.51-3.53,13.47-.55,8.51-.31,19.46.01,28.08.14,3.88.1,15.24,3.28,16.72,6.96,3.23,21.65,1.68,28.09-2.41,4.76-3.02,6.12-6.92,8.4-11.64.66-1.36-.64-2.75,2.25-2.19l-2.99,20H0l8.06-5.44c1.2-1.9,1.79-6.64,1.97-9.03.74-9.61,1.3-34.08-.1-42.98-.28-1.8-1.05-3.37-2.42-4.58C4.8,1.56.84,3.35,1,0h29Z"/>
      <path class="cls-1" d="M206.5,110c2.85.31,8.94,2,11.02,3.98,5.38,5.12,2.67,17.19-5.52,18.03l9.49,14,8.51,6.98-13-.49c-4.52-4.82-10.51-18.55-17.49-19.52-2.04-.28-1.31.16-1.5,1.49-.5,3.54-.56,12.58,1.95,15.09,1.83,1.83,4.64.41,4.05,3.43h-19c-.74-3.46,3.18-1.05,5.1-3.4.8-.97.79-1.91.94-3.06.63-4.66.76-26.81-.07-31.02-.92-4.67-5.21-1.8-4.97-5.53,6.57.52,14.06-.71,20.5,0ZM198,132c6.81-.42,15.13-2.15,15.04-10.52-.11-10.19-15.04-11.05-15.04-7.98v18.5Z"/>
      <path class="cls-1" d="M76,153c-.83-3.43,3.63-1.42,5.09-3.66.81-1.25.83-3.3.96-4.8.48-5.63.89-24.15-.07-29.02s-5.21-1.8-4.97-5.53h24.5c4.11,0,12.51,3.4,15.49,6.51,6.88,7.17,6.92,23.93-.48,30.5-2.49,2.21-11.87,5.99-15.01,5.99h-25.5ZM90.64,112.14l-1.2.8c-.95,1.36-.77,29.91,0,33.13,2.38,10.03,18.41,4.5,22.44-3.69,7.61-15.47-3.02-34.12-21.23-30.23Z"/>
      <path class="cls-1" d="M298.35,116.35c18.76-20.15,53.13,7.24,33.17,29.67-19.38,21.78-53.02-8.34-33.17-29.67ZM322.65,114.35c-5.28-4.61-12.74-3.52-17.18,1.62-7.09,8.21-6.7,29.73,4.53,34.52,17.46,7.45,25.65-24.81,12.65-36.15Z"/>
      <path class="cls-1" d="M421.5,110c9.81,1.1,18.5,8.3,12.7,18.7-4.78,8.59-19.29,5.1-20.76,7.23-.85,3.44-.69,9.14.81,12.32s4.39,1.99,5.75,4.75h-19c-.8-3.13,2.64-1.5,4.1-3.39,1.86-2.41,2.23-23.86,1.94-28.14-.19-2.79-1.07-5.5-1.2-8.29-1.1-1.66-6.76.34-5.84-3.17,6.87.55,14.77-.76,21.5,0ZM414.01,112.01c-.29,3.8-2.53,19.82-.08,21.56,19.29,1.85,20.47-23.71.08-21.56Z"/>
    </g>
  </g>
</svg>