<?xml version="1.0" encoding="utf-8"?>
<!-- Generator: Adobe Illustrator 28.4.1, SVG Export Plug-In . SVG Version: 6.00 Build 0)  -->
<svg version="1.1" id="Layer_1" xmlns="http://www.w3.org/2000/svg" xmlns:xlink="http://www.w3.org/1999/xlink" x="0px" y="0px"
	 viewBox="0 0 24 24" style="enable-background:new 0 0 24 24;" xml:space="preserve">
<style type="text/css">
	.st0{fill:#FFFFFF;}
</style>
<path class="st0" d="M21.8,3.3C21.7,3.1,21.6,3,21.4,3h-4.3l1.3-2.3c0.1-0.2,0-0.5-0.2-0.6c-0.2-0.1-0.5,0-0.6,0.2L16,3H2.6
	C2.4,3,2.3,3.1,2.2,3.3c-0.1,0.2,0,0.4,0.2,0.5l9.2,7.2v10.4l-5.1,1.8c-0.2,0.1-0.3,0.3-0.3,0.5c0,0.2,0.2,0.4,0.5,0.4h10.7
	c0,0,0,0,0,0c0.3,0,0.5-0.2,0.5-0.5c0-0.2-0.1-0.4-0.3-0.4l-5-1.8V10.9l9.2-7.2C21.8,3.7,21.9,3.5,21.8,3.3z M5.9,5.4L4,3.9h11.5
	l-0.8,1.5L5.9,5.4L5.9,5.4z M18.1,5.4h-2.4l0.8-1.5H20L18.1,5.4z"/>
</svg>
