<?xml version="1.0" encoding="utf-8"?>
<!-- Generator: Adobe Illustrator 28.4.1, SVG Export Plug-In . SVG Version: 6.00 Build 0)  -->
<svg version="1.1" id="Layer_1" xmlns="http://www.w3.org/2000/svg" xmlns:xlink="http://www.w3.org/1999/xlink" x="0px" y="0px"
	 viewBox="0 0 800 800" style="enable-background:new 0 0 800 800;" xml:space="preserve">
<style type="text/css">
	.st0{fill-rule:evenodd;clip-rule:evenodd;fill:#FFFFFF;}
</style>
<path class="st0" d="M211.5,341.2c-82.6,0-149.6-67-149.6-149.6S128.9,42,211.5,42s149.6,67,149.6,149.6S294.1,341.2,211.5,341.2z
	 M149.9,708.4c-15.8,15.3-41.1,14.9-56.4-1c-14.9-15.5-14.9-40,0-55.4L652,93.6c15.3-15.8,40.6-16.3,56.4-1
	c15.8,15.3,16.3,40.6,1,56.4c-0.3,0.3-0.6,0.7-1,1L149.9,708.4L149.9,708.4z M440.8,610.4c0,82.6,67,149.6,149.6,149.6
	S740,693,740,610.4s-67-149.6-149.6-149.6S440.8,527.8,440.8,610.4z M211.5,261.4c38.6,0,69.8-31.3,69.8-69.8s-31.3-69.8-69.8-69.8
	s-69.8,31.3-69.8,69.8S172.9,261.4,211.5,261.4z M660.2,610.4c0,38.6-31.3,69.8-69.8,69.8c-38.6,0-69.8-31.3-69.8-69.8
	c0-38.6,31.3-69.8,69.8-69.8C629,540.6,660.2,571.9,660.2,610.4z"/>
</svg>
